<?xml version="1.0" encoding="utf-8"?>
<!-- Generator: Adobe Illustrator 16.0.0, SVG Export Plug-In . SVG Version: 6.00 Build 0)  -->
<!DOCTYPE svg PUBLIC "-//W3C//DTD SVG 1.1//EN" "http://www.w3.org/Graphics/SVG/1.1/DTD/svg11.dtd">
<svg version="1.1" id="Layer_1" xmlns="http://www.w3.org/2000/svg" xmlns:xlink="http://www.w3.org/1999/xlink" x="0px" y="0px"
	 width="1885px" height="923px" viewBox="0 0 1885 923" enable-background="new 0 0 1885 923" xml:space="preserve">
<image overflow="visible" enable-background="new    " width="1885" height="923" xlink:href="map.png" >
</image>
<image overflow="visible" enable-background="new    " width="1885" height="923" xlink:href="map2.jpg"  transform="matrix(1 0 0 1 -1 -1)">
</image>
<image display="none" overflow="visible" width="1200" height="1200" xlink:href="HuntsvilleGridProjectMap.jpg"  transform="matrix(0.8651 0 0 0.8651 478.001 -66.5127)">
</image>
<g id="map2.psd">
	
		<image overflow="visible" enable-background="new    " width="1885" height="923" id="map2" xlink:href="map2.jpg"  transform="matrix(1 0 0 1 -8828.5 -8257.5)">
	</image>
	
		<image display="none" overflow="visible" enable-background="new    " width="1200" height="1200" xlink:href="HuntsvilleGridProjectMap.jpg"  transform="matrix(0.8797 0 0 0.8528 474.4814 -53.7441)">
	</image>
</g>
<path fill="#7B64AC" d="M1264.721,889.975c51.483,0.8,67.893,0.977,169.279,0.308l-0.308-171.508
	c-79.764,0-96.718,1.022-168.648,0.641"/>
<path fill="#7B64AC" d="M1088.748,889.975c52.193,0.8,68.828,0.977,171.613,0.308l-0.312-171.508
	c-80.864,0-98.052,1.022-170.974,0.641"/>
<path fill="#7B64AC" d="M915.748,889.975c51.163,0.8,67.47,0.977,168.227,0.308l-0.305-171.508c-79.27,0-96.117,1.022-167.6,0.641"
	/>
<path fill="#7B64AC" d="M739,889.975c52.193,0.8,68.828,0.977,171.613,0.308l-0.312-171.508c-80.865,0-98.051,1.022-170.973,0.641"
	/>
<path fill="#7B64AC" d="M566,889.975c51.163,0.8,67.47,0.977,168.227,0.308l-0.305-171.508c-79.269,0-96.117,1.022-167.599,0.641"/>
<path fill="#7B64AC" d="M1264.721,713.296c51.483,0.784,67.893,0.957,169.279,0.302l-0.308-168.066
	c-79.764,0-96.718,1.002-168.648,0.628"/>
<path fill="#7B64AC" d="M1088.748,713.296c52.193,0.784,68.828,0.957,171.613,0.302l-0.312-168.066
	c-80.864,0-98.052,1.002-170.974,0.628"/>
<path fill="#7B64AC" d="M915.748,713.296c51.163,0.784,67.47,0.957,168.227,0.302l-0.305-168.066c-79.27,0-96.117,1.002-167.6,0.628
	"/>
<path fill="#7B64AC" d="M739,713.296c52.193,0.784,68.828,0.957,171.613,0.302l-0.312-168.066c-80.865,0-98.051,1.002-170.973,0.628
	"/>
<path fill="#7B64AC" d="M566,713.296c51.163,0.784,67.47,0.957,168.227,0.302l-0.305-168.066c-79.269,0-96.117,1.002-167.599,0.628"
	/>
<path fill="#7B64AC" d="M1264.721,540.037c51.483,0.8,67.893,0.977,169.279,0.308l-0.308-171.508
	c-79.764,0-96.718,1.023-168.648,0.641"/>
<path fill="#7B64AC" d="M1088.748,540.037c52.193,0.8,68.828,0.977,171.613,0.308l-0.312-171.508
	c-80.864,0-98.052,1.023-170.974,0.641"/>
<path fill="#7B64AC" d="M915.748,540.037c51.163,0.8,67.47,0.977,168.227,0.308l-0.305-171.508c-79.27,0-96.117,1.023-167.6,0.641"
	/>
<path fill="#7B64AC" d="M739,540.037c52.193,0.8,68.828,0.977,171.613,0.308l-0.312-171.508c-80.865,0-98.051,1.023-170.973,0.641"
	/>
<path fill="#7B64AC" d="M566,540.037c51.163,0.8,67.47,0.977,168.227,0.308l-0.305-171.508c-79.269,0-96.117,1.023-167.599,0.641"/>
<path fill="#7B64AC" d="M1264.721,363.794c51.483,0.784,67.893,0.958,169.279,0.302l-0.308-168.043
	c-79.764,0-96.718,1.002-168.648,0.628"/>
<path fill="#7B64AC" d="M1088.748,363.794c52.193,0.784,68.828,0.958,171.613,0.302l-0.312-168.043
	c-80.864,0-98.052,1.002-170.974,0.628"/>
<path fill="#7B64AC" d="M915.748,363.794c51.163,0.784,67.47,0.958,168.227,0.302l-0.305-168.043c-79.27,0-96.117,1.002-167.6,0.628
	"/>
<path fill="#7B64AC" d="M739,363.794c52.193,0.784,68.828,0.958,171.613,0.302l-0.312-168.043c-80.865,0-98.051,1.002-170.973,0.628
	"/>
<path fill="#7B64AC" d="M566,363.794c51.163,0.784,67.47,0.958,168.227,0.302l-0.305-168.043c-79.269,0-96.117,1.002-167.599,0.628"
	/>
<path fill="#7B64AC" d="M1264.721,190.554c51.483,0.807,67.893,0.985,169.279,0.311l-0.308-172.846
	c-79.764,0-96.718,1.031-168.648,0.646"/>
<path fill="#7B64AC" d="M1088.748,190.554c52.193,0.807,68.828,0.985,171.613,0.311L1260.05,18.02
	c-80.864,0-98.052,1.031-170.974,0.646"/>
<path fill="#7B64AC" d="M915.748,190.554c51.163,0.807,67.47,0.985,168.227,0.311L1083.67,18.02c-79.27,0-96.117,1.031-167.6,0.646"
	/>
<path fill="#7B64AC" d="M739,190.554c52.193,0.807,68.828,0.985,171.613,0.311L910.302,18.02c-80.865,0-98.051,1.031-170.973,0.646"
	/>
<path fill="#7B64AC" d="M566,190.554c51.163,0.807,67.47,0.985,168.227,0.311L733.921,18.02c-79.269,0-96.117,1.031-167.599,0.646"
	/>
<g id="Layer_2" display="none">
	<rect x="568.666" y="364.5" display="inline" opacity="0.5" width="868.02" height="4.773"/>
	<rect x="566.025" y="191.28" display="inline" opacity="0.5" width="868.02" height="4.773"/>
	<rect x="734.227" y="18.497" display="inline" opacity="0.5" width="4.773" height="867.126"/>
	<rect x="910.613" y="17.604" display="inline" opacity="0.5" width="4.773" height="868.02"/>
	<rect x="1084.281" y="17.604" display="inline" opacity="0.5" width="4.773" height="868.02"/>
	<rect x="1259.947" y="17.604" display="inline" opacity="0.5" width="4.773" height="868.02"/>
	<rect x="568.823" y="540.757" display="inline" opacity="0.5" width="868.02" height="4.773"/>
	<rect x="568.666" y="714.001" display="inline" opacity="0.5" width="868.02" height="4.773"/>
</g>
</svg>
